{"title":"Butch.Cassidy.And.The.Sundance.Kid.1969.SWESUB.DVDRip.XviD.-Zen_","uid":5784559,"size":1467947008,"categoryP":"video","categoryS":"movies","magnet":"?xt=urn:btih:25ce5e392c2ab96186cadbb694871dffcfe8a903&amp;dn=Butch.Cassidy.And.The.Sundance.Kid.1969.SWESUB.DVDRip.XviD.-Zen_&amp;tr=udp%3A%2F%2Ftracker.openbittorrent.com%3A80&amp;tr=udp%3A%2F%2Fopen.demonii.com%3A1337&amp;tr=udp%3A%2F%2Ftracker.coppersurfer.tk%3A6969&amp;tr=udp%3A%2F%2Fexodus.desync.com%3A6969","seeders":0,"leechers":1,"uploader":"Zen_Bud","files":-1,"time":1282551927,"description":"General\nComplete name                    : Butch.Cassidy.And.The.Sundance.Kid.1969.avi\nFormat                           : AVI\nFile size                        : 1.37 GiB\nDuration                         : 1h 45mn\nOverall bit rate                 : 1 847 Kbps\n\nVideo\n\nFormat                           : MPEG-4 Visual\nCodec ID/Hint                    : XviD\nDuration                         : 1h 45mn\nBit rate                         : 1 727 Kbps\nWidth                            : 704 pixels\nHeight                           : 392 pixels\nDisplay aspect ratio             : 16:9\nStream size                      : 1.28 GiB (93%)\nWriting library                  : XviD 1.2.1 (UTC 2008-12-04)\n\nAudio\n\nFormat                           : MPEG Audio\nCodec ID/Hint                    : MP3\nDuration                         : 1h 45mn\nBit rate                         : 108 Kbps\nMinimum bit rate                 : 96.0 Kbps\nChannel(s)                       : 2 channels\nSampling rate                    : 48.0 KHz\nStream size                      : 81.7 MiB (6%)\nWriting library                  : LAME3.98r\n\n","torrent":{"xt":"urn:btih:25ce5e392c2ab96186cadbb694871dffcfe8a903","amp;dn":"Butch.Cassidy.And.The.Sundance.Kid.1969.SWESUB.DVDRip.XviD.-Zen_","amp;tr":["udp%3A%2F%2Ftracker.openbittorrent.com%3A80","udp%3A%2F%2Fopen.demonii.com%3A1337","udp%3A%2F%2Ftracker.coppersurfer.tk%3A6969","udp%3A%2F%2Fexodus.desync.com%3A6969"],"infoHash":"25ce5e392c2ab96186cadbb694871dffcfe8a903","infoHashBuffer":{"type":"Buffer","data":[37,206,94,57,44,42,185,97,134,202,219,182,148,135,29,255,207,232,169,3]},"announce":[],"urlList":[]}}